<svg version="1.2" xmlns="http://www.w3.org/2000/svg" viewBox="0 0 1280 1280" width="1280" height="1280">
	<title>nav-multividas-blogging-platform-multividas-social-media-blog-multividas-posts-threads-multividas-comments-discussions-multividas-short-texts-multividas-social-blogging</title>
	<defs>
		<linearGradient id="g1" x2="1" gradientUnits="userSpaceOnUse" gradientTransform="matrix(0,-262.686,83.847,0,-1151.407,1041.057)">
			<stop offset=".004" stop-color="#0f4b81"/>
			<stop offset="1" stop-color="#08416b"/>
		</linearGradient>
		<linearGradient id="g2" x2="1" gradientUnits="userSpaceOnUse" gradientTransform="matrix(0,-262.995,92.813,0,85.842,1052.845)">
			<stop offset=".004" stop-color="#0f4b81"/>
			<stop offset="1" stop-color="#08416b"/>
		</linearGradient>
	</defs>
	<style>
		.s0 { fill: #0f4b81 } 
		.s1 { fill: url(#g1) } 
		.s2 { fill: url(#g2) } 
	</style>
	<g id="&lt;Group&gt;">
		<path id="&lt;Path&gt;" class="s0" d="m528.5 1213.7c-37.2-64.8-74-128.8-110.7-192.7-131.8-229.4-263.2-458.9-395.8-687.8-11.7-20.2-12-34.6 0.1-54.7 41.4-68.3 80.5-137.9 123.3-211.9 151.3 263.4 299.9 522.1 449.7 782.8 6.7-4.3 11.4-6.5 15-9.8 148.8-137.1 284.1-285.8 391.1-458.4 67-108 105.2-205.9 120.7-306.8 6.3 8.7 11.4 14.4 15.2 21 40.9 70.3 80.5 141.5 122.8 210.9 14.1 23.1 13.8 42 3.4 65.6-62.6 142.9-153.3 267.2-254.2 384.6-139.4 162.3-295.2 307.7-460.4 443.2-5.7 4.7-12.2 8.5-20.2 14z"/>
		<path id="&lt;Path&gt;" class="s1" d="m10.1 391.1c85.8 148.9 169.3 293.3 252.1 438.2 5.4 9.5 6.5 22.4 6.6 33.8 0.4 97.5 0.4 194.9 0 292.4-0.2 42.7-15.7 58.1-57.8 58.3-50.3 0.2-100.7 0.5-151-0.1-34.9-0.4-53.3-18.6-53.3-53.8-0.4-252.8-0.3-505.6-0.3-758.3 0-1.8 1.2-3.7 3.7-10.5z"/>
		<path id="&lt;Path&gt;" class="s2" d="m1273.2 468.7c0 13 0 22.2 0 31.4-0.1 215.3-0.2 430.6-0.4 645.9 0 55.5-12.5 67.8-67.8 67.8-46 0.1-92.1 0.3-138.2-0.1-38.8-0.3-56.2-17.9-56.3-57.3-0.3-97.5-0.6-194.9 0.3-292.4 0.1-11.8 4-26 11.4-34.8 92-109.2 173.7-225.4 241-351.6 1.2-2.4 4.2-3.9 10-8.9z"/>
	</g>
</svg>